Coordinates
version=1
nRows=4
nColumns=114
inDegrees=yes

Units are S.I. units (second, meters, Newtons, ...)
If the header above contains a line with 'inDegrees', this indicates whether rotational values are in degrees (yes) or radians (no).

endheader 
time	pelvis_tilt	pelvis_list	pelvis_rotation	pelvis_tx	pelvis_ty	pelvis_tz	hip_flexion_l	hip_adduction_l	hip_rotation_l	hip_flexion_r	hip_adduction_r	hip_rotation_r	knee_angle_l	knee_angle_r	ankle_angle_l	ankle_angle_r	subtalar_angle_l	subtalar_angle_r	mtp_angle_l	mtp_angle_r	lumbar_extension	lumbar_bending	lumbar_rotation	arm_flex_l	arm_add_l	arm_rot_l	arm_flex_r	arm_add_r	arm_rot_r	elbow_flex_l	elbow_flex_r	pro_sup_l	pro_sup_r	addbrev_l/activation	addlong_l/activation	addmagDist_l/activation	addmagIsch_l/activation	addmagMid_l/activation	addmagProx_l/activation	bflh_l/activation	bfsh_l/activation	edl_l/activation	ehl_l/activation	fdl_l/activation	fhl_l/activation	gaslat_l/activation	gasmed_l/activation	glmax1_l/activation	glmax2_l/activation	glmax3_l/activation	glmed1_l/activation	glmed2_l/activation	glmed3_l/activation	glmin1_l/activation	glmin2_l/activation	glmin3_l/activation	grac_l/activation	iliacus_l/activation	perbrev_l/activation	perlong_l/activation	piri_l/activation	psoas_l/activation	recfem_l/activation	sart_l/activation	semimem_l/activation	semiten_l/activation	soleus_l/activation	tfl_l/activation	tibant_l/activation	tibpost_l/activation	vasint_l/activation	vaslat_l/activation	vasmed_l/activation	addbrev_r/activation	addlong_r/activation	addmagDist_r/activation	addmagIsch_r/activation	addmagMid_r/activation	addmagProx_r/activation	bflh_r/activation	bfsh_r/activation	edl_r/activation	ehl_r/activation	fdl_r/activation	fhl_r/activation	gaslat_r/activation	gasmed_r/activation	glmax1_r/activation	glmax2_r/activation	glmax3_r/activation	glmed1_r/activation	glmed2_r/activation	glmed3_r/activation	glmin1_r/activation	glmin2_r/activation	glmin3_r/activation	grac_r/activation	iliacus_r/activation	perbrev_r/activation	perlong_r/activation	piri_r/activation	psoas_r/activation	recfem_r/activation	sart_r/activation	semimem_r/activation	semiten_r/activation	soleus_r/activation	tfl_r/activation	tibant_r/activation	tibpost_r/activation	vasint_r/activation	vaslat_r/activation	vasmed_r/activation	
          1.09000000	        -10.24239355	          6.40591544	        -34.66316922	          1.19788944	          0.86701211	          0.35108872	         34.65514013	         -9.14112295	         -6.83840284	         35.69027636	         -6.98061688	         -7.18586647	         48.86857477	         52.46889291	         23.78993998	         27.89261645	        -13.43174723	         -9.98286373	         -9.78080336	         -5.60348618	        -13.16296127	         -0.81628187	          0.93423482	          1.69200160	        -20.12075349	         20.85533852	         -4.29359407	        -20.00445517	         11.28627178	         34.01228950	         33.55342777	        103.09764078	         96.86728713	          0.03187823	          0.03157629	          0.01000712	          0.01000485	          0.02076333	          0.12063152	          0.12732157	          0.01858745	          0.06851097	          0.01074219	          0.02882236	          0.04787191	          0.02155489	          0.02108484	          0.01000586	          0.01000348	          0.01833673	          0.01000283	          0.01000472	          0.01000603	          0.01000917	          0.01001178	          0.01001411	          0.01653130	          0.01569455	          0.02984541	          0.05148075	          0.03208148	          0.19459077	          0.15420863	          0.14471694	          0.02965267	          0.01001170	          0.13846305	          0.01004199	          0.08616468	          0.07256003	          0.09303325	          0.06009127	          0.16690176	          0.01444672	          0.03586071	          0.02098372	          0.05707015	          0.01378607	          0.01004418	          0.05516645	          0.01013413	          0.01006687	          0.01012162	          0.02193431	          0.04344938	          0.03291400	          0.03065428	          0.02806489	          0.05198668	          0.03408740	          0.09014750	          0.03860089	          0.02105572	          0.03351279	          0.02107865	          0.01230918	          0.01006771	          0.04356376	          0.01002052	          0.01001680	          0.01200244	          0.03004246	          0.06604869	          0.01126807	          0.07116170	          0.02080507	          0.17458359	          0.02994349	          0.04213778	          0.08550689	          0.03284323	          0.08948661	          0.04466711	
          1.10000000	        -10.51035446	          6.67627434	        -34.58093787	          1.19434319	          0.86290488	          0.34916930	         36.15905769	         -9.18195776	         -6.54951578	         37.02754864	         -7.18542340	         -7.01454515	         50.40491681	         53.77802656	         24.41206237	         28.36998771	        -13.49309033	         -9.60446629	         -9.27149719	         -5.59970247	        -13.75891777	         -0.71656989	          1.02620731	          1.66154060	        -20.05912956	         20.40491495	         -4.52416727	        -20.23074531	         10.52141597	         34.44482965	         34.15283902	        103.21813673	         96.95198918	          0.02657530	          0.02631710	          0.01001567	          0.01000446	          0.01730798	          0.14916767	          0.23407577	          0.01550639	          0.05712529	          0.04429660	          0.02483975	          0.04181495	          0.09531618	          0.10424510	          0.01000817	          0.01000591	          0.01528243	          0.01000175	          0.01000336	          0.01000573	          0.01000537	          0.01000707	          0.01000960	          0.01383959	          0.01308131	          0.02495091	          0.04290662	          0.07256312	          0.16216254	          0.12850735	          0.12060899	          0.15499666	          0.01001290	          0.11569011	          0.01001538	          0.11045344	          0.08122833	          0.07752799	          0.05007612	          0.13908507	          0.02607190	          0.02996032	          0.07281909	          0.07597061	          0.05610973	          0.01215876	          0.07715827	          0.01014051	          0.01047372	          0.01028805	          0.01828749	          0.03623007	          0.02743340	          0.02724065	          0.02340436	          0.04333225	          0.06675001	          0.07512749	          0.03217812	          0.01756098	          0.02793863	          0.01757821	          0.01028476	          0.02091595	          0.03630527	          0.01150321	          0.01200748	          0.01003396	          0.02503770	          0.05504143	          0.01005804	          0.05931397	          0.04086419	          0.21822896	          0.02495692	          0.03511987	          0.07774035	          0.02814322	          0.07552485	          0.03819904	
          1.11000000	        -10.79147493	          6.94672781	        -34.50785860	          1.19083194	          0.85852084	          0.34727476	         37.67318907	         -9.23148926	         -6.30159748	         38.39515527	         -7.37939397	         -6.85008203	         52.16621444	         55.14912911	         25.14449847	         28.80354755	        -13.57907695	         -9.28586870	         -8.78411673	         -5.63223327	        -14.33762653	         -0.60317325	          1.14101275	          1.66728401	        -19.94839456	         19.98708613	         -4.71352147	        -20.44091483	          9.80162000	         34.75952113	         34.70897578	        103.27979390	         96.93481337	          0.02215189	          0.02193387	          0.01200084	          0.01197446	          0.01442676	          0.12432196	          0.19506324	          0.13987748	          0.04760696	          0.03691979	          0.02076243	          0.03484987	          0.07943140	          0.08687180	          0.01001916	          0.01006592	          0.01273673	          0.01000175	          0.01000350	          0.01000641	          0.01000505	          0.01000593	          0.01000757	          0.10455827	          0.01090399	          0.02079382	          0.03575616	          0.06047550	          0.13513893	          0.27345646	          0.19726236	          0.12916395	          0.15132885	          0.09640862	          0.01000356	          0.10679752	          0.06975333	          0.06460690	          0.04173015	          0.11590445	          0.02174818	          0.02497662	          0.07925603	          0.10474457	          0.04681235	          0.01016688	          0.08217899	          0.01014187	          0.01005541	          0.01009402	          0.01526946	          0.03020206	          0.03317392	          0.05059085	          0.04974391	          0.10063344	          0.10712842	          0.06261733	          0.02689312	          0.02083388	          0.02330156	          0.01467240	          0.01209971	          0.01755321	          0.03025657	          0.01003672	          0.01002584	          0.01001993	          0.02086703	          0.04587008	          0.01002716	          0.13191105	          0.04259615	          0.24904846	          0.02080322	          0.02927257	          0.08468553	          0.02651293	          0.06714444	          0.03568980	
          1.12000000	        -11.03907101	          7.18669836	        -34.44268798	          1.18764631	          0.85376915	          0.34559903	         39.13196271	         -9.28545374	         -6.04836830	         39.70651250	         -7.55951003	         -6.67991939	         53.97455260	         56.56556232	         25.87698629	         29.18920566	        -13.65217827	         -9.02616479	         -8.33541342	         -5.75426262	        -14.86345130	         -0.47721664	          1.25841056	          1.71954428	        -19.80517347	         19.64279110	         -4.86355998	        -20.62610684	          9.23005494	         34.91795278	         35.16644632	        103.10323124	         96.61303559	          0.01846209	          0.01827983	          0.01000315	          0.01000153	          0.01202347	          0.10360514	          0.16255361	          0.11656564	          0.03969521	          0.03078634	          0.01734355	          0.03277967	          0.06619878	          0.07240963	          0.01000227	          0.01000105	          0.01061447	          0.01000309	          0.01000435	          0.01000415	          0.01001088	          0.01001587	          0.01001805	          0.08713285	          0.03164977	          0.01733152	          0.03656455	          0.08969135	          0.20702959	          0.22788314	          0.16439136	          0.10763700	          0.12610769	          0.10774621	          0.01729422	          0.08900784	          0.06777308	          0.16137145	          0.03477591	          0.25028640	          0.01813605	          0.02081968	          0.06606135	          0.08729237	          0.03903237	          0.01535690	          0.06848952	          0.01012867	          0.01009669	          0.01011181	          0.01273225	          0.04192586	          0.02765219	          0.04216741	          0.04147664	          0.08388745	          0.09762638	          0.05218286	          0.02241523	          0.01737233	          0.01942318	          0.01223417	          0.01010117	          0.01467164	          0.02521605	          0.01016339	          0.01044919	          0.01519946	          0.01739243	          0.03822677	          0.01013048	          0.10992733	          0.03550403	          0.28445501	          0.01734120	          0.02440502	          0.11781691	          0.03566027	          0.13778721	          0.04858933	
